<mxfile host="app.diagrams.net" modified="2024-01-27T18:10:11.433Z" agent="Mozilla/5.0 (Macintosh; Intel Mac OS X 10_15_7) AppleWebKit/537.36 (KHTML, like Gecko) Chrome/120.0.0.0 Safari/537.36" etag="CLiwN1kW7HgK_9yINkBd" version="23.0.2" type="github">
  <diagram name="Page-1" id="1i88uL4tgNgLgjWV6jyw">
    <mxGraphModel dx="629" dy="676" grid="0" gridSize="10" guides="1" tooltips="1" connect="1" arrows="1" fold="1" page="1" pageScale="1" pageWidth="827" pageHeight="1169" math="1" shadow="0">
      <root>
        <mxCell id="0" />
        <mxCell id="1" parent="0" />
        <mxCell id="Acl5Tz1fKhTrObzx4y-x-3" style="edgeStyle=orthogonalEdgeStyle;rounded=0;orthogonalLoop=1;jettySize=auto;html=1;" edge="1" parent="1" source="Acl5Tz1fKhTrObzx4y-x-2">
          <mxGeometry relative="1" as="geometry">
            <mxPoint x="309.5000000000001" y="170.42857142857144" as="targetPoint" />
          </mxGeometry>
        </mxCell>
        <mxCell id="Acl5Tz1fKhTrObzx4y-x-2" value="start" style="rounded=1;whiteSpace=wrap;html=1;" vertex="1" parent="1">
          <mxGeometry x="281" y="114" width="57" height="28" as="geometry" />
        </mxCell>
        <mxCell id="Acl5Tz1fKhTrObzx4y-x-5" style="edgeStyle=orthogonalEdgeStyle;rounded=0;orthogonalLoop=1;jettySize=auto;html=1;" edge="1" parent="1" source="Acl5Tz1fKhTrObzx4y-x-4">
          <mxGeometry relative="1" as="geometry">
            <mxPoint x="309.5000000000001" y="269.7142857142858" as="targetPoint" />
          </mxGeometry>
        </mxCell>
        <mxCell id="Acl5Tz1fKhTrObzx4y-x-4" value="i_episode % &lt;br&gt;target_update == 0" style="rhombus;whiteSpace=wrap;html=1;" vertex="1" parent="1">
          <mxGeometry x="228.5" y="170" width="162" height="62" as="geometry" />
        </mxCell>
        <mxCell id="Acl5Tz1fKhTrObzx4y-x-6" value="Yes" style="text;html=1;align=center;verticalAlign=middle;resizable=0;points=[];autosize=1;strokeColor=none;fillColor=none;" vertex="1" parent="1">
          <mxGeometry x="303" y="235" width="38" height="26" as="geometry" />
        </mxCell>
        <mxCell id="Acl5Tz1fKhTrObzx4y-x-8" style="edgeStyle=orthogonalEdgeStyle;rounded=0;orthogonalLoop=1;jettySize=auto;html=1;entryX=1;entryY=0.5;entryDx=0;entryDy=0;exitX=1;exitY=0.5;exitDx=0;exitDy=0;" edge="1" parent="1" source="Acl5Tz1fKhTrObzx4y-x-11">
          <mxGeometry relative="1" as="geometry">
            <mxPoint x="519" y="428" as="sourcePoint" />
            <mxPoint x="338" y="128" as="targetPoint" />
            <Array as="points">
              <mxPoint x="427" y="383" />
              <mxPoint x="427" y="128" />
            </Array>
          </mxGeometry>
        </mxCell>
        <mxCell id="Acl5Tz1fKhTrObzx4y-x-10" style="edgeStyle=orthogonalEdgeStyle;rounded=0;orthogonalLoop=1;jettySize=auto;html=1;" edge="1" parent="1" source="Acl5Tz1fKhTrObzx4y-x-7">
          <mxGeometry relative="1" as="geometry">
            <mxPoint x="309.5" y="356.1428571428571" as="targetPoint" />
          </mxGeometry>
        </mxCell>
        <mxCell id="Acl5Tz1fKhTrObzx4y-x-7" value="evaluate net&#39;s paras &lt;br&gt;---&amp;gt;&lt;br&gt;target net&#39;s paras" style="rounded=1;whiteSpace=wrap;html=1;" vertex="1" parent="1">
          <mxGeometry x="238" y="270" width="143" height="53" as="geometry" />
        </mxCell>
        <mxCell id="Acl5Tz1fKhTrObzx4y-x-9" value="No" style="text;html=1;align=center;verticalAlign=middle;resizable=0;points=[];autosize=1;strokeColor=none;fillColor=none;" vertex="1" parent="1">
          <mxGeometry x="385" y="360" width="33" height="26" as="geometry" />
        </mxCell>
        <mxCell id="Acl5Tz1fKhTrObzx4y-x-11" value="select #batch_size &lt;br&gt;[s, a, r, s&#39;] from memory" style="rounded=1;whiteSpace=wrap;html=1;" vertex="1" parent="1">
          <mxGeometry x="238" y="356" width="143" height="53" as="geometry" />
        </mxCell>
        <mxCell id="Acl5Tz1fKhTrObzx4y-x-13" value="" style="strokeWidth=1;html=1;shape=mxgraph.flowchart.annotation_2;align=left;labelPosition=right;pointerEvents=1;flipH=0;flipV=1;rotation=90;" vertex="1" parent="1">
          <mxGeometry x="280.75" y="304.75" width="57.5" height="268" as="geometry" />
        </mxCell>
        <mxCell id="Acl5Tz1fKhTrObzx4y-x-14" value="current state &lt;i&gt;s&lt;/i&gt;" style="text;html=1;align=center;verticalAlign=middle;resizable=0;points=[];autosize=1;strokeColor=none;fillColor=none;" vertex="1" parent="1">
          <mxGeometry x="185" y="418" width="94" height="26" as="geometry" />
        </mxCell>
        <mxCell id="Acl5Tz1fKhTrObzx4y-x-15" value="next state &lt;i&gt;s&#39;&lt;/i&gt;" style="text;html=1;align=center;verticalAlign=middle;resizable=0;points=[];autosize=1;strokeColor=none;fillColor=none;" vertex="1" parent="1">
          <mxGeometry x="346" y="418" width="82" height="26" as="geometry" />
        </mxCell>
        <mxCell id="Acl5Tz1fKhTrObzx4y-x-16" value="evaluate network" style="rounded=1;whiteSpace=wrap;html=1;" vertex="1" parent="1">
          <mxGeometry x="121.5" y="468" width="107" height="33" as="geometry" />
        </mxCell>
        <mxCell id="Acl5Tz1fKhTrObzx4y-x-18" style="edgeStyle=orthogonalEdgeStyle;rounded=0;orthogonalLoop=1;jettySize=auto;html=1;" edge="1" parent="1" source="Acl5Tz1fKhTrObzx4y-x-17">
          <mxGeometry relative="1" as="geometry">
            <mxPoint x="444" y="531.8571428571429" as="targetPoint" />
          </mxGeometry>
        </mxCell>
        <mxCell id="Acl5Tz1fKhTrObzx4y-x-17" value="target network" style="rounded=1;whiteSpace=wrap;html=1;" vertex="1" parent="1">
          <mxGeometry x="390.5" y="468" width="107" height="33" as="geometry" />
        </mxCell>
        <mxCell id="Acl5Tz1fKhTrObzx4y-x-22" style="edgeStyle=orthogonalEdgeStyle;rounded=0;orthogonalLoop=1;jettySize=auto;html=1;exitX=0.5;exitY=1;exitDx=0;exitDy=0;entryX=0.5;entryY=0;entryDx=0;entryDy=0;" edge="1" parent="1" source="Acl5Tz1fKhTrObzx4y-x-19" target="Acl5Tz1fKhTrObzx4y-x-21">
          <mxGeometry relative="1" as="geometry" />
        </mxCell>
        <mxCell id="Acl5Tz1fKhTrObzx4y-x-19" value="each action&#39;s Q value: &lt;i&gt;q_next&lt;/i&gt;" style="rounded=1;whiteSpace=wrap;html=1;" vertex="1" parent="1">
          <mxGeometry x="361.25" y="531" width="165.5" height="33" as="geometry" />
        </mxCell>
        <mxCell id="Acl5Tz1fKhTrObzx4y-x-23" style="edgeStyle=orthogonalEdgeStyle;rounded=0;orthogonalLoop=1;jettySize=auto;html=1;" edge="1" parent="1" source="Acl5Tz1fKhTrObzx4y-x-21">
          <mxGeometry relative="1" as="geometry">
            <mxPoint x="443.875" y="644" as="targetPoint" />
          </mxGeometry>
        </mxCell>
        <mxCell id="Acl5Tz1fKhTrObzx4y-x-21" value="select&amp;nbsp;&lt;i style=&quot;border-color: var(--border-color);&quot;&gt;q_next.max&lt;/i&gt;" style="rounded=1;whiteSpace=wrap;html=1;" vertex="1" parent="1">
          <mxGeometry x="387" y="590" width="113.75" height="33" as="geometry" />
        </mxCell>
        <mxCell id="Acl5Tz1fKhTrObzx4y-x-27" style="edgeStyle=orthogonalEdgeStyle;rounded=0;orthogonalLoop=1;jettySize=auto;html=1;" edge="1" parent="1" source="Acl5Tz1fKhTrObzx4y-x-24">
          <mxGeometry relative="1" as="geometry">
            <mxPoint x="443.875" y="716.1428571428573" as="targetPoint" />
          </mxGeometry>
        </mxCell>
        <mxCell id="Acl5Tz1fKhTrObzx4y-x-24" value="cal. &lt;i&gt;TD Target&lt;/i&gt;" style="rounded=1;whiteSpace=wrap;html=1;" vertex="1" parent="1">
          <mxGeometry x="387" y="644" width="113.75" height="33" as="geometry" />
        </mxCell>
        <mxCell id="Acl5Tz1fKhTrObzx4y-x-28" value="&lt;svg style=&quot;vertical-align: -0.489ex;&quot; xmlns:xlink=&quot;http://www.w3.org/1999/xlink&quot; viewBox=&quot;0 -583 10337.8 799&quot; role=&quot;img&quot; height=&quot;1.808ex&quot; width=&quot;23.389ex&quot; xmlns=&quot;http://www.w3.org/2000/svg&quot;&gt;&lt;defs&gt;&lt;path d=&quot;M33 157Q33 258 109 349T280 441Q340 441 372 389Q373 390 377 395T388 406T404 418Q438 442 450 442Q454 442 457 439T460 434Q460 425 391 149Q320 -135 320 -139Q320 -147 365 -148H390Q396 -156 396 -157T393 -175Q389 -188 383 -194H370Q339 -192 262 -192Q234 -192 211 -192T174 -192T157 -193Q143 -193 143 -185Q143 -182 145 -170Q149 -154 152 -151T172 -148Q220 -148 230 -141Q238 -136 258 -53T279 32Q279 33 272 29Q224 -10 172 -10Q117 -10 75 30T33 157ZM352 326Q329 405 277 405Q242 405 210 374T160 293Q131 214 119 129Q119 126 119 118T118 106Q118 61 136 44T179 26Q233 26 290 98L298 109L352 326Z&quot; id=&quot;MJX-2-TEX-I-1D45E&quot;&gt;&lt;/path&gt;&lt;path d=&quot;M26 385Q19 392 19 395Q19 399 22 411T27 425Q29 430 36 430T87 431H140L159 511Q162 522 166 540T173 566T179 586T187 603T197 615T211 624T229 626Q247 625 254 615T261 596Q261 589 252 549T232 470L222 433Q222 431 272 431H323Q330 424 330 420Q330 398 317 385H210L174 240Q135 80 135 68Q135 26 162 26Q197 26 230 60T283 144Q285 150 288 151T303 153H307Q322 153 322 145Q322 142 319 133Q314 117 301 95T267 48T216 6T155 -11Q125 -11 98 4T59 56Q57 64 57 83V101L92 241Q127 382 128 383Q128 385 77 385H26Z&quot; id=&quot;MJX-2-TEX-I-1D461&quot;&gt;&lt;/path&gt;&lt;path d=&quot;M33 157Q33 258 109 349T280 441Q331 441 370 392Q386 422 416 422Q429 422 439 414T449 394Q449 381 412 234T374 68Q374 43 381 35T402 26Q411 27 422 35Q443 55 463 131Q469 151 473 152Q475 153 483 153H487Q506 153 506 144Q506 138 501 117T481 63T449 13Q436 0 417 -8Q409 -10 393 -10Q359 -10 336 5T306 36L300 51Q299 52 296 50Q294 48 292 46Q233 -10 172 -10Q117 -10 75 30T33 157ZM351 328Q351 334 346 350T323 385T277 405Q242 405 210 374T160 293Q131 214 119 129Q119 126 119 118T118 106Q118 61 136 44T179 26Q217 26 254 59T298 110Q300 114 325 217T351 328Z&quot; id=&quot;MJX-2-TEX-I-1D44E&quot;&gt;&lt;/path&gt;&lt;path d=&quot;M21 287Q22 290 23 295T28 317T38 348T53 381T73 411T99 433T132 442Q161 442 183 430T214 408T225 388Q227 382 228 382T236 389Q284 441 347 441H350Q398 441 422 400Q430 381 430 363Q430 333 417 315T391 292T366 288Q346 288 334 299T322 328Q322 376 378 392Q356 405 342 405Q286 405 239 331Q229 315 224 298T190 165Q156 25 151 16Q138 -11 108 -11Q95 -11 87 -5T76 7T74 17Q74 30 114 189T154 366Q154 405 128 405Q107 405 92 377T68 316T57 280Q55 278 41 278H27Q21 284 21 287Z&quot; id=&quot;MJX-2-TEX-I-1D45F&quot;&gt;&lt;/path&gt;&lt;path d=&quot;M56 347Q56 360 70 367H707Q722 359 722 347Q722 336 708 328L390 327H72Q56 332 56 347ZM56 153Q56 168 72 173H708Q722 163 722 153Q722 140 707 133H70Q56 140 56 153Z&quot; id=&quot;MJX-2-TEX-N-3D&quot;&gt;&lt;/path&gt;&lt;path d=&quot;M56 237T56 250T70 270H369V420L370 570Q380 583 389 583Q402 583 409 568V270H707Q722 262 722 250T707 230H409V-68Q401 -82 391 -82H389H387Q375 -82 369 -68V230H70Q56 237 56 250Z&quot; id=&quot;MJX-2-TEX-N-2B&quot;&gt;&lt;/path&gt;&lt;path d=&quot;M31 249Q11 249 11 258Q11 275 26 304T66 365T129 418T206 441Q233 441 239 440Q287 429 318 386T371 255Q385 195 385 170Q385 166 386 166L398 193Q418 244 443 300T486 391T508 430Q510 431 524 431H537Q543 425 543 422Q543 418 522 378T463 251T391 71Q385 55 378 6T357 -100Q341 -165 330 -190T303 -216Q286 -216 286 -188Q286 -138 340 32L346 51L347 69Q348 79 348 100Q348 257 291 317Q251 355 196 355Q148 355 108 329T51 260Q49 251 47 251Q45 249 31 249Z&quot; id=&quot;MJX-2-TEX-I-1D6FE&quot;&gt;&lt;/path&gt;&lt;path d=&quot;M229 286Q216 420 216 436Q216 454 240 464Q241 464 245 464T251 465Q263 464 273 456T283 436Q283 419 277 356T270 286L328 328Q384 369 389 372T399 375Q412 375 423 365T435 338Q435 325 425 315Q420 312 357 282T289 250L355 219L425 184Q434 175 434 161Q434 146 425 136T401 125Q393 125 383 131T328 171L270 213Q283 79 283 63Q283 53 276 44T250 35Q231 35 224 44T216 63Q216 80 222 143T229 213L171 171Q115 130 110 127Q106 124 100 124Q87 124 76 134T64 161Q64 166 64 169T67 175T72 181T81 188T94 195T113 204T138 215T170 230T210 250L74 315Q65 324 65 338Q65 353 74 363T98 374Q106 374 116 368T171 328L229 286Z&quot; id=&quot;MJX-2-TEX-N-2217&quot;&gt;&lt;/path&gt;&lt;path d=&quot;M21 287Q22 293 24 303T36 341T56 388T89 425T135 442Q171 442 195 424T225 390T231 369Q231 367 232 367L243 378Q304 442 382 442Q436 442 469 415T503 336T465 179T427 52Q427 26 444 26Q450 26 453 27Q482 32 505 65T540 145Q542 153 560 153Q580 153 580 145Q580 144 576 130Q568 101 554 73T508 17T439 -10Q392 -10 371 17T350 73Q350 92 386 193T423 345Q423 404 379 404H374Q288 404 229 303L222 291L189 157Q156 26 151 16Q138 -11 108 -11Q95 -11 87 -5T76 7T74 17Q74 30 112 180T152 343Q153 348 153 366Q153 405 129 405Q91 405 66 305Q60 285 60 284Q58 278 41 278H27Q21 284 21 287Z&quot; id=&quot;MJX-2-TEX-I-1D45B&quot;&gt;&lt;/path&gt;&lt;path d=&quot;M39 168Q39 225 58 272T107 350T174 402T244 433T307 442H310Q355 442 388 420T421 355Q421 265 310 237Q261 224 176 223Q139 223 138 221Q138 219 132 186T125 128Q125 81 146 54T209 26T302 45T394 111Q403 121 406 121Q410 121 419 112T429 98T420 82T390 55T344 24T281 -1T205 -11Q126 -11 83 42T39 168ZM373 353Q367 405 305 405Q272 405 244 391T199 357T170 316T154 280T149 261Q149 260 169 260Q282 260 327 284T373 353Z&quot; id=&quot;MJX-2-TEX-I-1D452&quot;&gt;&lt;/path&gt;&lt;path d=&quot;M52 289Q59 331 106 386T222 442Q257 442 286 424T329 379Q371 442 430 442Q467 442 494 420T522 361Q522 332 508 314T481 292T458 288Q439 288 427 299T415 328Q415 374 465 391Q454 404 425 404Q412 404 406 402Q368 386 350 336Q290 115 290 78Q290 50 306 38T341 26Q378 26 414 59T463 140Q466 150 469 151T485 153H489Q504 153 504 145Q504 144 502 134Q486 77 440 33T333 -11Q263 -11 227 52Q186 -10 133 -10H127Q78 -10 57 16T35 71Q35 103 54 123T99 143Q142 143 142 101Q142 81 130 66T107 46T94 41L91 40Q91 39 97 36T113 29T132 26Q168 26 194 71Q203 87 217 139T245 247T261 313Q266 340 266 352Q266 380 251 392T217 404Q177 404 142 372T93 290Q91 281 88 280T72 278H58Q52 284 52 289Z&quot; id=&quot;MJX-2-TEX-I-1D465&quot;&gt;&lt;/path&gt;&lt;path d=&quot;M78 60Q78 84 95 102T138 120Q162 120 180 104T199 61Q199 36 182 18T139 0T96 17T78 60Z&quot; id=&quot;MJX-2-TEX-N-2E&quot;&gt;&lt;/path&gt;&lt;path d=&quot;M21 287Q22 293 24 303T36 341T56 388T88 425T132 442T175 435T205 417T221 395T229 376L231 369Q231 367 232 367L243 378Q303 442 384 442Q401 442 415 440T441 433T460 423T475 411T485 398T493 385T497 373T500 364T502 357L510 367Q573 442 659 442Q713 442 746 415T780 336Q780 285 742 178T704 50Q705 36 709 31T724 26Q752 26 776 56T815 138Q818 149 821 151T837 153Q857 153 857 145Q857 144 853 130Q845 101 831 73T785 17T716 -10Q669 -10 648 17T627 73Q627 92 663 193T700 345Q700 404 656 404H651Q565 404 506 303L499 291L466 157Q433 26 428 16Q415 -11 385 -11Q372 -11 364 -4T353 8T350 18Q350 29 384 161L420 307Q423 322 423 345Q423 404 379 404H374Q288 404 229 303L222 291L189 157Q156 26 151 16Q138 -11 108 -11Q95 -11 87 -5T76 7T74 17Q74 30 112 181Q151 335 151 342Q154 357 154 369Q154 405 129 405Q107 405 92 377T69 316T57 280Q55 278 41 278H27Q21 284 21 287Z&quot; id=&quot;MJX-2-TEX-I-1D45A&quot;&gt;&lt;/path&gt;&lt;/defs&gt;&lt;g transform=&quot;scale(1,-1)&quot; stroke-width=&quot;0&quot; fill=&quot;currentColor&quot; stroke=&quot;currentColor&quot;&gt;&lt;g data-mml-node=&quot;math&quot;&gt;&lt;g data-mml-node=&quot;msub&quot;&gt;&lt;g data-mml-node=&quot;mi&quot;&gt;&lt;use xlink:href=&quot;#MJX-2-TEX-I-1D45E&quot; data-c=&quot;1D45E&quot;&gt;&lt;/use&gt;&lt;/g&gt;&lt;g data-mjx-texclass=&quot;ORD&quot; transform=&quot;translate(479,-150) scale(0.707)&quot; data-mml-node=&quot;TeXAtom&quot;&gt;&lt;g data-mml-node=&quot;mi&quot;&gt;&lt;use xlink:href=&quot;#MJX-2-TEX-I-1D461&quot; data-c=&quot;1D461&quot;&gt;&lt;/use&gt;&lt;/g&gt;&lt;g transform=&quot;translate(361,0)&quot; data-mml-node=&quot;mi&quot;&gt;&lt;use xlink:href=&quot;#MJX-2-TEX-I-1D44E&quot; data-c=&quot;1D44E&quot;&gt;&lt;/use&gt;&lt;/g&gt;&lt;g transform=&quot;translate(890,0)&quot; data-mml-node=&quot;mi&quot;&gt;&lt;use xlink:href=&quot;#MJX-2-TEX-I-1D45F&quot; data-c=&quot;1D45F&quot;&gt;&lt;/use&gt;&lt;/g&gt;&lt;/g&gt;&lt;/g&gt;&lt;g transform=&quot;translate(1755,0)&quot; data-mml-node=&quot;mo&quot;&gt;&lt;use xlink:href=&quot;#MJX-2-TEX-N-3D&quot; data-c=&quot;3D&quot;&gt;&lt;/use&gt;&lt;/g&gt;&lt;g transform=&quot;translate(2810.8,0)&quot; data-mml-node=&quot;mi&quot;&gt;&lt;use xlink:href=&quot;#MJX-2-TEX-I-1D45F&quot; data-c=&quot;1D45F&quot;&gt;&lt;/use&gt;&lt;/g&gt;&lt;g transform=&quot;translate(3484,0)&quot; data-mml-node=&quot;mo&quot;&gt;&lt;use xlink:href=&quot;#MJX-2-TEX-N-2B&quot; data-c=&quot;2B&quot;&gt;&lt;/use&gt;&lt;/g&gt;&lt;g transform=&quot;translate(4484.2,0)&quot; data-mml-node=&quot;mi&quot;&gt;&lt;use xlink:href=&quot;#MJX-2-TEX-I-1D6FE&quot; data-c=&quot;1D6FE&quot;&gt;&lt;/use&gt;&lt;/g&gt;&lt;g transform=&quot;translate(5249.5,0)&quot; data-mml-node=&quot;mo&quot;&gt;&lt;use xlink:href=&quot;#MJX-2-TEX-N-2217&quot; data-c=&quot;2217&quot;&gt;&lt;/use&gt;&lt;/g&gt;&lt;g transform=&quot;translate(5971.7,0)&quot; data-mml-node=&quot;msub&quot;&gt;&lt;g data-mml-node=&quot;mi&quot;&gt;&lt;use xlink:href=&quot;#MJX-2-TEX-I-1D45E&quot; data-c=&quot;1D45E&quot;&gt;&lt;/use&gt;&lt;/g&gt;&lt;g data-mjx-texclass=&quot;ORD&quot; transform=&quot;translate(479,-150) scale(0.707)&quot; data-mml-node=&quot;TeXAtom&quot;&gt;&lt;g data-mml-node=&quot;mi&quot;&gt;&lt;use xlink:href=&quot;#MJX-2-TEX-I-1D45B&quot; data-c=&quot;1D45B&quot;&gt;&lt;/use&gt;&lt;/g&gt;&lt;g transform=&quot;translate(600,0)&quot; data-mml-node=&quot;mi&quot;&gt;&lt;use xlink:href=&quot;#MJX-2-TEX-I-1D452&quot; data-c=&quot;1D452&quot;&gt;&lt;/use&gt;&lt;/g&gt;&lt;g transform=&quot;translate(1066,0)&quot; data-mml-node=&quot;mi&quot;&gt;&lt;use xlink:href=&quot;#MJX-2-TEX-I-1D465&quot; data-c=&quot;1D465&quot;&gt;&lt;/use&gt;&lt;/g&gt;&lt;g transform=&quot;translate(1638,0)&quot; data-mml-node=&quot;mi&quot;&gt;&lt;use xlink:href=&quot;#MJX-2-TEX-I-1D461&quot; data-c=&quot;1D461&quot;&gt;&lt;/use&gt;&lt;/g&gt;&lt;/g&gt;&lt;/g&gt;&lt;g transform=&quot;translate(7914.2,0)&quot; data-mml-node=&quot;mo&quot;&gt;&lt;use xlink:href=&quot;#MJX-2-TEX-N-2E&quot; data-c=&quot;2E&quot;&gt;&lt;/use&gt;&lt;/g&gt;&lt;g transform=&quot;translate(8358.8,0)&quot; data-mml-node=&quot;mi&quot;&gt;&lt;use xlink:href=&quot;#MJX-2-TEX-I-1D45A&quot; data-c=&quot;1D45A&quot;&gt;&lt;/use&gt;&lt;/g&gt;&lt;g transform=&quot;translate(9236.8,0)&quot; data-mml-node=&quot;mi&quot;&gt;&lt;use xlink:href=&quot;#MJX-2-TEX-I-1D44E&quot; data-c=&quot;1D44E&quot;&gt;&lt;/use&gt;&lt;/g&gt;&lt;g transform=&quot;translate(9765.8,0)&quot; data-mml-node=&quot;mi&quot;&gt;&lt;use xlink:href=&quot;#MJX-2-TEX-I-1D465&quot; data-c=&quot;1D465&quot;&gt;&lt;/use&gt;&lt;/g&gt;&lt;/g&gt;&lt;/g&gt;&lt;/svg&gt;" style="text;html=1;align=center;verticalAlign=middle;resizable=0;points=[];autosize=1;strokeColor=none;fillColor=none;" vertex="1" parent="1">
          <mxGeometry x="439" y="680" width="165" height="26" as="geometry" />
        </mxCell>
        <mxCell id="Acl5Tz1fKhTrObzx4y-x-30" value="cal. &lt;i&gt;Q&lt;/i&gt; valuve in action &lt;i&gt;a&lt;/i&gt;: &lt;br&gt;&lt;i&gt;q_eval&lt;/i&gt;" style="text;html=1;align=center;verticalAlign=middle;resizable=0;points=[];autosize=1;strokeColor=none;fillColor=none;" vertex="1" parent="1">
          <mxGeometry x="170" y="578" width="149" height="41" as="geometry" />
        </mxCell>
        <mxCell id="Acl5Tz1fKhTrObzx4y-x-37" value="" style="edgeStyle=orthogonalEdgeStyle;rounded=0;orthogonalLoop=1;jettySize=auto;html=1;" edge="1" parent="1" source="Acl5Tz1fKhTrObzx4y-x-31" target="Acl5Tz1fKhTrObzx4y-x-34">
          <mxGeometry relative="1" as="geometry" />
        </mxCell>
        <mxCell id="Acl5Tz1fKhTrObzx4y-x-31" value="loss func. = MSE (q_eval, q_tar)" style="rounded=1;whiteSpace=wrap;html=1;" vertex="1" parent="1">
          <mxGeometry x="133" y="717" width="351" height="38" as="geometry" />
        </mxCell>
        <mxCell id="Acl5Tz1fKhTrObzx4y-x-32" style="edgeStyle=orthogonalEdgeStyle;rounded=0;orthogonalLoop=1;jettySize=auto;html=1;exitX=0.5;exitY=1;exitDx=0;exitDy=0;entryX=0.118;entryY=-0.023;entryDx=0;entryDy=0;entryPerimeter=0;" edge="1" parent="1" source="Acl5Tz1fKhTrObzx4y-x-16" target="Acl5Tz1fKhTrObzx4y-x-31">
          <mxGeometry relative="1" as="geometry" />
        </mxCell>
        <mxCell id="Acl5Tz1fKhTrObzx4y-x-34" value="gradient descent&lt;br&gt;update evaluate net&#39;s paras" style="rounded=1;whiteSpace=wrap;html=1;" vertex="1" parent="1">
          <mxGeometry x="231" y="823" width="155" height="38" as="geometry" />
        </mxCell>
        <mxCell id="Acl5Tz1fKhTrObzx4y-x-38" value="optimizer.zero_grad()&lt;br&gt;loss.backward()&lt;br&gt;optimizer.step()" style="text;html=1;align=center;verticalAlign=middle;resizable=0;points=[];autosize=1;strokeColor=none;fillColor=none;" vertex="1" parent="1">
          <mxGeometry x="303" y="757" width="131" height="55" as="geometry" />
        </mxCell>
      </root>
    </mxGraphModel>
  </diagram>
</mxfile>
